<?xml version="1.0" encoding="UTF-8" standalone="no"?>
<!-- Created with Inkscape (http://www.inkscape.org/) -->

<svg
   xmlns:dc="http://purl.org/dc/elements/1.1/"
   xmlns:cc="http://creativecommons.org/ns#"
   xmlns:rdf="http://www.w3.org/1999/02/22-rdf-syntax-ns#"
   xmlns:svg="http://www.w3.org/2000/svg"
   xmlns="http://www.w3.org/2000/svg"
   xmlns:sodipodi="http://sodipodi.sourceforge.net/DTD/sodipodi-0.dtd"
   xmlns:inkscape="http://www.inkscape.org/namespaces/inkscape"
   version="1.1"
   id="svg2"
   xml:space="preserve"
   width="375.82666"
   height="84.146667"
   viewBox="0 0 375.82666 84.146667"
   sodipodi:docname="comses-logo.svg"
   inkscape:version="0.92.1 r15371"><metadata
     id="metadata8"><rdf:RDF><cc:Work
         rdf:about=""><dc:format>image/svg+xml</dc:format><dc:type
           rdf:resource="http://purl.org/dc/dcmitype/StillImage" /><dc:title></dc:title></cc:Work></rdf:RDF></metadata><defs
     id="defs6" /><sodipodi:namedview
     pagecolor="#ffffff"
     bordercolor="#666666"
     borderopacity="1"
     objecttolerance="10"
     gridtolerance="10"
     guidetolerance="10"
     inkscape:pageopacity="0"
     inkscape:pageshadow="2"
     inkscape:window-width="845"
     inkscape:window-height="480"
     id="namedview4"
     showgrid="false"
     inkscape:zoom="1.7774152"
     inkscape:cx="187.91333"
     inkscape:cy="42.073334"
     inkscape:window-x="0"
     inkscape:window-y="36"
     inkscape:window-maximized="0"
     inkscape:current-layer="g10" /><g
     id="g10"
     inkscape:groupmode="layer"
     inkscape:label="ink_ext_XXXXXX"
     transform="matrix(1.3333333,0,0,-1.3333333,0,84.146667)"><g
       id="g12"
       transform="scale(0.1)"><path
         d="m 735.809,330.094 c -6.477,-35.996 -19.434,-73.789 -74.149,-73.789 -72.711,0 -83.508,76.668 -83.508,124.187 0,32.754 5.039,125.977 84.59,125.977 59.031,0 70.192,-51.114 74.508,-73.067 l -27.715,-6.836 c -4.676,23.399 -11.156,55.43 -46.074,55.43 -52.914,0 -54.356,-77.031 -54.356,-100.789 0,-33.469 5.403,-100.422 54.356,-100.422 27,0 37.437,14.395 46.074,55.793 l 26.274,-6.484"
         style="fill:#595a5c;fill-opacity:1;fill-rule:nonzero;stroke:none"
         id="path14"
         inkscape:connector-curvature="0" /><path
         d="m 783.707,349.898 c 0,-20.156 1.797,-71.632 38.871,-71.632 37.074,0 38.875,51.476 38.875,71.632 0,16.551 -0.715,71.993 -38.875,71.993 -37.793,0 -38.871,-53.996 -38.871,-71.993 z m 106.902,2.157 c 0,-31.317 -5.039,-95.75 -68.386,-95.75 -55.075,0 -67.676,52.195 -67.676,93.593 0,35.997 8.641,93.946 68.754,93.946 55.789,0 67.308,-54.356 67.308,-91.789"
         style="fill:#595a5c;fill-opacity:1;fill-rule:nonzero;stroke:none"
         id="path16"
         inkscape:connector-curvature="0" /><path
         d="m 912.945,501.43 h 42.114 l 56.511,-193.289 56.52,193.289 h 41.03 V 261.344 h -27.36 V 469.398 L 1019.85,261.344 H 998.613 L 938.141,469.762 V 261.344 H 912.945 V 501.43"
         style="fill:#595a5c;fill-opacity:1;fill-rule:nonzero;stroke:none"
         id="path18"
         inkscape:connector-curvature="0" /><path
         d="m 1264.65,439.164 c -6.48,19.434 -15.12,42.832 -48.23,42.832 -32.76,0 -39.96,-24.832 -39.96,-37.43 0,-25.195 19.79,-33.117 52.91,-45.714 28.08,-10.801 68.39,-26.278 68.39,-72.352 0,-29.883 -20.15,-70.195 -76.67,-70.195 -20.51,0 -43.91,6.121 -59.03,20.156 -16.92,15.477 -21.24,34.922 -23.75,47.879 l 26.63,7.558 c 3.6,-15.839 11.88,-51.113 56.87,-51.113 36,0 45.72,25.195 45.72,41.035 0,28.438 -24.48,38.868 -47.16,47.512 -27.71,10.801 -38.87,15.117 -51.47,26.277 -12.6,11.153 -20.88,29.512 -20.88,47.512 0,29.16 21.24,63.348 70.92,63.348 53.98,0 66.59,-42.469 71.63,-59.746 l -25.92,-7.559"
         style="fill:#595a5c;fill-opacity:1;fill-rule:nonzero;stroke:none"
         id="path20"
         inkscape:connector-curvature="0" /><path
         d="m 1457.24,501.43 v -24.11 h -101.51 v -79.55 h 79.9 v -24.122 h -79.9 v -88.183 h 104.38 V 261.344 H 1326.57 V 501.43 h 130.67"
         style="fill:#595a5c;fill-opacity:1;fill-rule:nonzero;stroke:none"
         id="path22"
         inkscape:connector-curvature="0" /><path
         d="m 1597.64,439.164 c -6.48,19.434 -15.12,42.832 -48.24,42.832 -32.75,0 -39.95,-24.832 -39.95,-37.43 0,-25.195 19.8,-33.117 52.91,-45.714 28.08,-10.801 68.39,-26.278 68.39,-72.352 0,-29.883 -20.15,-70.195 -76.67,-70.195 -20.52,0 -43.9,6.121 -59.02,20.156 -16.93,15.477 -21.24,34.922 -23.76,47.879 l 26.63,7.558 c 3.6,-15.839 11.88,-51.113 56.87,-51.113 36,0 45.72,25.195 45.72,41.035 0,28.438 -24.48,38.868 -47.15,47.512 -27.72,10.801 -38.88,15.117 -51.48,26.277 -12.59,11.153 -20.87,29.512 -20.87,47.512 0,29.16 21.24,63.348 70.9,63.348 54,0 66.6,-42.469 71.63,-59.746 l -25.91,-7.559"
         style="fill:#595a5c;fill-opacity:1;fill-rule:nonzero;stroke:none"
         id="path24"
         inkscape:connector-curvature="0" /><path
         d="m 1885.45,422.594 c -8.7,-16.809 -11.41,-41.699 -11.41,-63 0,-22.5 3,-46.504 11.41,-62.403 7.79,-15 18,-21.601 35.1,-21.601 17.39,0 26.99,8.398 33.89,21.301 9,16.804 11.4,42 11.4,62.703 0,23.097 -3,47.09 -11.4,62.695 -6.6,12.598 -15.59,21.602 -34.5,21.602 -17.39,0 -27.29,-7.801 -34.49,-21.297 z m 105.59,-63 c 0,-43.797 -10.8,-104.102 -70.49,-104.102 -62.1,0 -71.7,64.199 -71.7,104.102 0,41.992 10.5,104.394 71.7,104.394 59.39,0 70.49,-59.695 70.49,-104.394"
         style="fill:#989ea1;fill-opacity:1;fill-rule:nonzero;stroke:none"
         id="path26"
         inkscape:connector-curvature="0" /><path
         d="m 2030.95,322.387 c 0,-12.293 0,-23.692 8.09,-34.492 6,-8.106 14.1,-12.899 24.3,-12.899 9.9,0 17.4,3.602 23.7,14.695 7.2,12.598 8.7,32.102 8.7,44.7 0,21.297 -4.5,57.898 -32.4,57.898 -8.7,0 -18,-2.703 -25.5,-16.199 -6.89,-12.297 -6.89,-21.602 -6.89,-31.496 z m -2.1,85.207 v -25.801 c 3.89,8.992 12.29,28.797 39.29,28.797 31.8,0 51.9,-29.402 51.9,-75 0,-15 -3.3,-78.895 -51.9,-78.895 -21.9,0 -29.69,10.203 -37.19,22.196 v -69.297 h -21.91 v 198 h 19.81"
         style="fill:#989ea1;fill-opacity:1;fill-rule:nonzero;stroke:none"
         id="path28"
         inkscape:connector-curvature="0" /><path
         d="m 2215.14,348.793 c 0,22.199 -6.9,44.699 -30.31,44.699 -22.49,0 -29.09,-23.703 -30.89,-44.699 z m -62.4,-17.996 c 0,-12.902 -0.3,-57.004 34.5,-57.004 21,0 26.7,18.301 30,29.699 l 20.7,-4.797 c -9.31,-34.5 -30.61,-43.203 -51.91,-43.203 -42.29,0 -56.39,37.199 -56.39,75.899 0,55.5 26.39,80.402 57.6,80.402 33.3,0 51.9,-25.5 52.8,-80.996 h -87.3"
         style="fill:#989ea1;fill-opacity:1;fill-rule:nonzero;stroke:none"
         id="path30"
         inkscape:connector-curvature="0" /><path
         d="m 2255.04,407.594 h 20.4 v -22.805 c 3.9,8.703 12,27.004 38.09,27.004 16.81,0 30,-7.805 35.41,-19.805 4.19,-8.996 4.5,-21.601 4.5,-38.097 v -94.2 h -21.91 v 91.204 c 0,24.597 0,42.597 -22.79,42.597 -17.71,0 -31.8,-12.304 -31.8,-54.004 v -79.797 h -21.9 v 147.903"
         style="fill:#989ea1;fill-opacity:1;fill-rule:nonzero;stroke:none"
         id="path32"
         inkscape:connector-curvature="0" /><path
         d="m 2456.93,336.488 -24.89,99.602 -25.2,-99.602 z m -8.99,123.301 53.4,-200.098 h -24.6 l -14.71,57.305 h -59.99 l -14.4,-57.305 h -24.6 l 56.1,200.098 h 28.8"
         style="fill:#989ea1;fill-opacity:1;fill-rule:nonzero;stroke:none"
         id="path34"
         inkscape:connector-curvature="0" /><path
         d="m 2536.74,279.789 h 30.9 c 24.89,0 41.99,10.207 41.99,36.906 0,8.399 -1.8,21.895 -14.09,30.594 -9.6,6.906 -19.51,7.5 -32.71,7.5 h -26.09 z m 0,95.098 h 26.7 c 15.9,0 39.29,1.504 39.29,33 0,31.804 -24.9,31.804 -35.99,31.804 h -30 z m -24.3,84.902 h 54.3 c 18.3,0 36.89,0 49.2,-14.402 11.09,-12.903 11.99,-29.102 11.99,-35.098 0,-32.402 -22.2,-41.094 -30.6,-44.394 9.01,-2.403 37.5,-10.5 37.5,-50.403 0,-31.504 -16.5,-55.801 -66.6,-55.801 h -55.79 v 200.098"
         style="fill:#989ea1;fill-opacity:1;fill-rule:nonzero;stroke:none"
         id="path36"
         inkscape:connector-curvature="0" /><path
         d="m 2655.23,459.789 h 35.1 l 47.1,-161.094 47.1,161.094 h 34.2 V 259.691 h -22.8 V 433.09 l -51.59,-173.399 h -17.71 l -50.4,173.692 V 259.691 h -21 v 200.098"
         style="fill:#989ea1;fill-opacity:1;fill-rule:nonzero;stroke:none"
         id="path38"
         inkscape:connector-curvature="0" /><path
         d="m 1750.64,246.578 h 10 v 256.668 h -10 z"
         style="fill:#989ea1;fill-opacity:1;fill-rule:nonzero;stroke:none"
         id="path40"
         inkscape:connector-curvature="0" /><path
         d="M 289.5,453.281 475.961,346.25 V 133.75 L 250.543,0 174.711,40.625 330.543,129.582 v 66.043 l 39.992,24.188 V 358.75 l -85.41,49.164 4.375,45.367"
         style="fill:#40c1ea;fill-opacity:1;fill-rule:nonzero;stroke:none"
         id="path42"
         inkscape:connector-curvature="0" /><path
         d="m 280.793,514.871 59.59,-34.406 v -68.809 l -59.59,-34.406 -59.594,34.406 v 68.809 l 59.594,34.406"
         style="fill:#8ad03a;fill-opacity:1;fill-rule:nonzero;stroke:none"
         id="path44"
         inkscape:connector-curvature="0" /><path
         d="m 266.09,187.277 64.422,-37.195 V 75.6953 L 266.09,38.5 201.668,75.6953 v 74.3867 l 64.422,37.195"
         style="fill:#40c1ea;fill-opacity:1;fill-rule:nonzero;stroke:none"
         id="path46"
         inkscape:connector-curvature="0" /><path
         d="m 501.617,517.426 31.067,-17.934 v -35.875 l -31.067,-17.933 -31.062,17.933 v 35.875 l 31.062,17.934"
         style="fill:#8ad03a;fill-opacity:1;fill-rule:nonzero;stroke:none"
         id="path48"
         inkscape:connector-curvature="0" /><path
         d="M 97.3086,536.762 117.223,525.266 V 502.27 l -19.9144,-11.5 -19.918,11.5 v 22.996 l 19.918,11.496"
         style="fill:#8ad03a;fill-opacity:1;fill-rule:nonzero;stroke:none"
         id="path50"
         inkscape:connector-curvature="0" /><path
         d="m 452.258,263.641 48.055,-27.746 v -55.497 l -48.055,-27.746 -48.059,27.746 v 55.497 l 48.059,27.746"
         style="fill:#8ad03a;fill-opacity:1;fill-rule:nonzero;stroke:none"
         id="path52"
         inkscape:connector-curvature="0" /><path
         d="m 244.758,631.141 48.055,-27.746 v -55.497 l -48.055,-27.746 -48.059,27.746 v 55.497 l 48.059,27.746"
         style="fill:#8ad03a;fill-opacity:1;fill-rule:nonzero;stroke:none"
         id="path54"
         inkscape:connector-curvature="0" /><path
         d="M 120.785,106.801 151.852,88.8672 V 52.9922 L 120.785,35.0586 89.7188,52.9922 v 35.875 l 31.0662,17.9338"
         style="fill:#8ad03a;fill-opacity:1;fill-rule:nonzero;stroke:none"
         id="path56"
         inkscape:connector-curvature="0" /><path
         d="m 412.832,430.551 82.316,-47.524 V 287.98 L 412.832,240.453 330.52,287.98 v 95.047 l 82.312,47.524"
         style="fill:#8ad03a;fill-opacity:1;fill-rule:nonzero;stroke:none"
         id="path58"
         inkscape:connector-curvature="0" /><path
         d="M 113.664,323.051 195.98,275.527 V 180.48 L 113.664,132.953 31.3516,180.48 v 95.047 l 82.3124,47.524"
         style="fill:#8ad03a;fill-opacity:1;fill-rule:nonzero;stroke:none"
         id="path60"
         inkscape:connector-curvature="0" /><path
         d="m 377.215,544.906 46.668,-26.945 v -53.887 l -46.668,-26.945 -46.672,26.945 v 53.887 l 46.672,26.945"
         style="fill:#40c1ea;fill-opacity:1;fill-rule:nonzero;stroke:none"
         id="path62"
         inkscape:connector-curvature="0" /><path
         d="m 120.977,460.531 42.308,-24.426 v -48.851 l -42.308,-24.426 -42.309,24.426 v 48.851 l 42.309,24.426"
         style="fill:#40c1ea;fill-opacity:1;fill-rule:nonzero;stroke:none"
         id="path64"
         inkscape:connector-curvature="0" /><path
         d="m 220.281,386.574 57.657,-33.289 v -66.574 l -57.657,-33.285 -57.652,33.285 v 66.574 l 57.652,33.289"
         style="fill:#595a5c;fill-opacity:1;fill-rule:nonzero;stroke:none"
         id="path66"
         inkscape:connector-curvature="0" /><path
         d="M 31.3242,289.074 62.6445,270.988 V 234.82 L 31.3242,216.738 0,234.82 v 36.168 l 31.3242,18.086"
         style="fill:#595a5c;fill-opacity:1;fill-rule:nonzero;stroke:none"
         id="path68"
         inkscape:connector-curvature="0" /><path
         d="m 467.531,329.074 45.242,-26.121 v -52.238 l -45.242,-26.121 -45.242,26.121 v 52.238 l 45.242,26.121"
         style="fill:#595a5c;fill-opacity:1;fill-rule:nonzero;stroke:none"
         id="path70"
         inkscape:connector-curvature="0" /><path
         d="m 264.992,89.6992 31.324,-18.0859 v -36.168 l -31.324,-18.082 -31.324,18.082 v 36.168 l 31.324,18.0859"
         style="fill:#595a5c;fill-opacity:1;fill-rule:nonzero;stroke:none"
         id="path72"
         inkscape:connector-curvature="0" /><path
         d="m 187.391,598.551 24.168,-13.953 v -27.91 l -24.168,-13.954 -24.168,13.954 v 27.91 l 24.168,13.953"
         style="fill:#595a5c;fill-opacity:1;fill-rule:nonzero;stroke:none"
         id="path74"
         inkscape:connector-curvature="0" /><path
         d="m 195.746,313.496 57.656,-33.289 v -66.574 l -57.656,-33.285 -57.652,33.285 v 66.574 l 57.652,33.289"
         style="fill:#40c1ea;fill-opacity:1;fill-rule:nonzero;stroke:none"
         id="path76"
         inkscape:connector-curvature="0" /><path
         d="m 303.148,277.094 27.504,-15.879 v -31.754 l -27.504,-15.879 -27.5,15.879 v 31.754 l 27.5,15.879"
         style="fill:#40c1ea;fill-opacity:1;fill-rule:nonzero;stroke:none"
         id="path78"
         inkscape:connector-curvature="0" /><path
         d="m 132.93,165.66 37.879,-21.867 V 100.051 L 132.93,78.1836 95.0508,100.051 v 43.742 L 132.93,165.66"
         style="fill:#40c1ea;fill-opacity:1;fill-rule:nonzero;stroke:none"
         id="path80"
         inkscape:connector-curvature="0" /><path
         d="m 615.656,169.656 33.153,-68.515 v 68.515 h 9.097 V 82.9375 H 647.508 L 611.367,156.785 V 82.9375 h -9.101 v 86.7185 h 13.39"
         style="fill:#40c1ea;fill-opacity:1;fill-rule:nonzero;stroke:none"
         id="path82"
         inkscape:connector-curvature="0" /><path
         d="m 719.531,169.656 v -8.711 h -36.664 v -28.73 h 28.863 v -8.711 H 682.867 V 91.6484 h 37.703 v -8.7109 h -48.23 v 86.7185 h 47.191"
         style="fill:#40c1ea;fill-opacity:1;fill-rule:nonzero;stroke:none"
         id="path84"
         inkscape:connector-curvature="0" /><path
         d="m 783.879,169.656 v -8.847 H 763.078 V 82.9375 h -10.531 v 77.8715 h -20.672 v 8.847 h 52.004"
         style="fill:#40c1ea;fill-opacity:1;fill-rule:nonzero;stroke:none"
         id="path86"
         inkscape:connector-curvature="0" /><path
         d="m 805.328,169.656 13.91,-68.906 15.336,68.906 h 8.324 l 15.731,-68.906 13.648,68.906 h 9.235 L 863.57,82.9375 h -9.882 L 838.219,149.246 823.398,82.9375 h -9.75 l -18.593,86.7185 h 10.273"
         style="fill:#40c1ea;fill-opacity:1;fill-rule:nonzero;stroke:none"
         id="path88"
         inkscape:connector-curvature="0" /><path
         d="m 902.566,153.531 c -3.769,-7.285 -4.945,-18.062 -4.945,-27.301 0,-9.75 1.301,-20.148 4.945,-27.0425 3.379,-6.4961 7.797,-9.3555 15.207,-9.3555 7.54,0 11.7,3.6446 14.688,9.2305 3.902,7.2855 4.941,18.2035 4.941,27.1675 0,10.008 -1.297,20.411 -4.941,27.176 -2.856,5.457 -6.758,9.356 -14.945,9.356 -7.543,0 -11.832,-3.379 -14.95,-9.231 z m 45.758,-27.301 c 0,-18.976 -4.679,-45.1089 -30.551,-45.1089 -26.914,0 -31.074,27.8199 -31.074,45.1089 0,18.204 4.551,45.243 31.074,45.243 25.743,0 30.551,-25.868 30.551,-45.243"
         style="fill:#40c1ea;fill-opacity:1;fill-rule:nonzero;stroke:none"
         id="path90"
         inkscape:connector-curvature="0" /><path
         d="M 970.684,160.945 V 129.48 h 13.136 c 12.215,0 16.9,7.286 16.9,16.641 0,12.481 -9.626,14.824 -16.122,14.824 z m 14.695,8.711 c 1.43,0 11.437,-0.136 17.551,-4.812 4.16,-3.117 8.32,-9.36 8.32,-18.852 0,-15.73 -10.53,-20.926 -14.301,-22.754 L 1013.2,82.9375 h -11.31 L 987.324,120.77 h -16.64 V 82.9375 h -10.528 v 86.7185 h 25.223"
         style="fill:#40c1ea;fill-opacity:1;fill-rule:nonzero;stroke:none"
         id="path92"
         inkscape:connector-curvature="0" /><path
         d="M 1035.29,169.656 V 124.02 l 30.29,45.636 h 11.83 l -22.75,-31.726 28.21,-54.9925 h -12.09 l -22.88,45.5075 -12.61,-17.812 V 82.9375 h -10.53 v 86.7185 h 10.53"
         style="fill:#40c1ea;fill-opacity:1;fill-rule:nonzero;stroke:none"
         id="path94"
         inkscape:connector-curvature="0" /></g></g></svg>