<svg id="Ebene_1" data-name="Ebene 1" xmlns="http://www.w3.org/2000/svg" viewBox="0 0 536.49 130"><defs><style>.cls-1{fill:#edede6;}</style></defs><title>DataCite-Logos</title><path class="cls-1" d="M122,63.5a.89.89,0,0,1-.27-.65V11.5a.9.9,0,0,1,.91-.91h19a23.32,23.32,0,0,1,10,2,15.56,15.56,0,0,1,6.65,5.66,15.19,15.19,0,0,1,2.35,8.43v21a15.19,15.19,0,0,1-2.35,8.43,15.56,15.56,0,0,1-6.65,5.66,23.32,23.32,0,0,1-10,2h-19A.88.88,0,0,1,122,63.5Zm10.82-8.93H142a7.33,7.33,0,0,0,5.66-2.36,9.17,9.17,0,0,0,2.24-6.3V28.44a9,9,0,0,0-2.16-6.31A7.51,7.51,0,0,0,142,19.78h-9.12a.33.33,0,0,0-.38.38v34A.34.34,0,0,0,132.85,54.57Z"/><path class="cls-1" d="M192.18,25.82a14.57,14.57,0,0,1,6,4.67,11,11,0,0,1,2.16,6.61V62.85a.89.89,0,0,1-.91.91h-8.89a.9.9,0,0,1-.91-.91V60.34a.3.3,0,0,0-.15-.3q-.15-.07-.3.15Q186,64.38,179,64.37q-5.93,0-9.57-2.89T165.74,53a10.86,10.86,0,0,1,4.11-9.07q4.1-3.24,11.69-3.23h7.75a.34.34,0,0,0,.38-.38V38.62a5.06,5.06,0,0,0-1.52-3.92,6.53,6.53,0,0,0-4.56-1.4,8.17,8.17,0,0,0-3.91.84,3.86,3.86,0,0,0-2,2.35.87.87,0,0,1-1,.76L167.49,36c-.61-.1-.89-.32-.84-.68a10.17,10.17,0,0,1,2.55-5.77,14.83,14.83,0,0,1,5.92-4,22.53,22.53,0,0,1,8.25-1.44A21.6,21.6,0,0,1,192.18,25.82Zm-4.79,28.83a5.42,5.42,0,0,0,2.28-4.49V47.43a.34.34,0,0,0-.38-.38h-5.47a9.55,9.55,0,0,0-5.35,1.29A4.14,4.14,0,0,0,176.53,52,4,4,0,0,0,178,55.22a6,6,0,0,0,3.88,1.17A8.87,8.87,0,0,0,187.39,54.65Z"/><path class="cls-1" d="M227.69,33a.87.87,0,0,1-.64.27h-7.3a.34.34,0,0,0-.38.38v16.1a5.73,5.73,0,0,0,1,3.73,4.08,4.08,0,0,0,3.3,1.21h2.51a.9.9,0,0,1,.91.91v7.22a.93.93,0,0,1-.91,1Q223,64,221.65,64q-6.3,0-9.42-2.09c-2.07-1.39-3.14-4-3.19-7.86V33.68a.33.33,0,0,0-.38-.38h-4.33a.92.92,0,0,1-.91-.91V25.63a.88.88,0,0,1,.27-.65.84.84,0,0,1,.64-.26h4.33a.33.33,0,0,0,.38-.38v-9a.92.92,0,0,1,.91-.92h8.51a.88.88,0,0,1,.65.27.91.91,0,0,1,.26.65v9a.34.34,0,0,0,.38.38h7.3a.86.86,0,0,1,.64.26.88.88,0,0,1,.27.65v6.76A.85.85,0,0,1,227.69,33Z"/><path class="cls-1" d="M258.8,25.82a14.57,14.57,0,0,1,6,4.67A11,11,0,0,1,267,37.1V62.85a.89.89,0,0,1-.91.91H257.2a.9.9,0,0,1-.91-.91V60.34a.3.3,0,0,0-.15-.3q-.15-.07-.3.15-3.19,4.19-10.26,4.18-5.93,0-9.57-2.89T232.36,53a10.86,10.86,0,0,1,4.11-9.07q4.09-3.24,11.69-3.23h7.75a.34.34,0,0,0,.38-.38V38.62a5.1,5.1,0,0,0-1.52-3.92,6.53,6.53,0,0,0-4.56-1.4,8.17,8.17,0,0,0-3.91.84,3.86,3.86,0,0,0-2,2.35.87.87,0,0,1-1,.76L234.11,36c-.61-.1-.89-.32-.84-.68a10.11,10.11,0,0,1,2.55-5.77,14.83,14.83,0,0,1,5.92-4A22.53,22.53,0,0,1,250,24.11,21.6,21.6,0,0,1,258.8,25.82ZM254,54.65a5.42,5.42,0,0,0,2.28-4.49V47.43a.34.34,0,0,0-.38-.38h-5.47a9.55,9.55,0,0,0-5.35,1.29A4.14,4.14,0,0,0,243.15,52a4,4,0,0,0,1.44,3.23,6,6,0,0,0,3.88,1.17A8.87,8.87,0,0,0,254,54.65Z"/><path class="cls-1" d="M284.55,62.36a15.32,15.32,0,0,1-6.27-5.93A17.27,17.27,0,0,1,276,47.58V26.69A16.94,16.94,0,0,1,278.28,18a15.34,15.34,0,0,1,6.27-5.88A20,20,0,0,1,293.89,10a20.31,20.31,0,0,1,9.35,2,15.19,15.19,0,0,1,6.26,5.77,16.28,16.28,0,0,1,2.24,8.59.81.81,0,0,1-.22.6.7.7,0,0,1-.53.23l-3.88.23c-.51,0-.76-.23-.76-.68v-.23a11.28,11.28,0,0,0-3.42-8.62,14.21,14.21,0,0,0-18.08,0,11.36,11.36,0,0,0-3.41,8.59V47.81a11.34,11.34,0,0,0,3.41,8.58,14.2,14.2,0,0,0,18.08,0,11.3,11.3,0,0,0,3.42-8.62v-.15c0-.46.25-.69.76-.69l3.88.23c.5,0,.75.23.75.68a16.58,16.58,0,0,1-2.24,8.7,15,15,0,0,1-6.26,5.81,20.31,20.31,0,0,1-9.35,2A20,20,0,0,1,284.55,62.36Z"/><path class="cls-1" d="M319.57,17.12a4.12,4.12,0,0,1-1.22-3A4.12,4.12,0,0,1,319.57,11a4.53,4.53,0,0,1,6.08,0,4.11,4.11,0,0,1,1.21,3.08,4.3,4.3,0,0,1-7.29,3Zm.15,45.81V26a.67.67,0,0,1,.76-.76h3.87a.67.67,0,0,1,.76.76V62.93a.67.67,0,0,1-.76.76h-3.87A.67.67,0,0,1,319.72,62.93Z"/><path class="cls-1" d="M352.54,29.81H344a.27.27,0,0,0-.3.3V52.52q0,3.65,1.63,5.13c1.09,1,2.8,1.48,5.13,1.48h1.9a.67.67,0,0,1,.76.76V63a.67.67,0,0,1-.76.76c-.61.05-1.55.08-2.81.08-3.65,0-6.41-.69-8.28-2.05s-2.81-3.9-2.81-7.6V30.11c0-.2-.1-.3-.31-.3h-4.63a.67.67,0,0,1-.76-.76v-3a.67.67,0,0,1,.76-.76h4.63c.21,0,.31-.1.31-.3V16.21a.67.67,0,0,1,.76-.76h3.72a.67.67,0,0,1,.76.76V25a.27.27,0,0,0,.3.3h8.59a.68.68,0,0,1,.76.76v3A.68.68,0,0,1,352.54,29.81Z"/><path class="cls-1" d="M388.54,43.4v2.43a.67.67,0,0,1-.76.76H363.25a.28.28,0,0,0-.31.31,33.89,33.89,0,0,0,.46,5.39A9.08,9.08,0,0,0,367,57.68a11.61,11.61,0,0,0,7,2,10.83,10.83,0,0,0,5.62-1.44,10,10,0,0,0,3.8-4.11c.3-.45.66-.55,1.06-.3l3,1.75a.75.75,0,0,1,.31,1.06,13.77,13.77,0,0,1-5.7,5.74,17.84,17.84,0,0,1-8.74,2.08,16,16,0,0,1-9-2.58,13.88,13.88,0,0,1-5.24-7q-1.37-3.65-1.36-10.48c0-2.13,0-3.86.11-5.2a17.07,17.07,0,0,1,.57-3.61,14,14,0,0,1,5.2-7.9,15.18,15.18,0,0,1,9.46-3q6.91,0,10.64,3.49t4.63,9.88A39,39,0,0,1,388.54,43.4Zm-21.76-12a9,9,0,0,0-3.23,5.21,24.64,24.64,0,0,0-.61,5.16.28.28,0,0,0,.31.31h19.67a.28.28,0,0,0,.31-.31,35.67,35.67,0,0,0-.46-4.86,9.58,9.58,0,0,0-3.38-5.43,10.05,10.05,0,0,0-6.42-2A9.72,9.72,0,0,0,366.78,31.36Z"/><path class="cls-1" d="M20.56,51.72c.57.11,1.1.21,1.78.32,29.29,5.81,72.89-1.89,78.5-16.09,4.4-11.48-20.17-19.6-48.89-18.61a8.63,8.63,0,0,0-1.68.11c15.3,1.52,29.09,7.6,23.58,17.08-6,10.38-31.54,17.3-53.29,17.19"/><path class="cls-1" d="M84.7,53.17c-5.08,30.81-31.7,12.42-38-9-9.12-22.27-1-50.88,21.8-34.11C49.64,1.39,47.65,26.44,55.72,44.26,62.43,59.14,77,68.73,84,53.38c.31-.11.58-.11.68-.21"/><path class="cls-1" d="M278.32,103.06a4.07,4.07,0,0,1-1.68-1.58,4.55,4.55,0,0,1-.6-2.36V94.39a4.54,4.54,0,0,1,.6-2.35,3.93,3.93,0,0,1,1.68-1.57,5.51,5.51,0,0,1,2.53-.56,5.61,5.61,0,0,1,2.51.54A4,4,0,0,1,285,92a4.23,4.23,0,0,1,.59,2.26.21.21,0,0,1-.06.16.22.22,0,0,1-.17.07l-1.76.1c-.15,0-.23-.07-.23-.21a2.42,2.42,0,0,0-.7-1.82,2.51,2.51,0,0,0-1.86-.69,2.58,2.58,0,0,0-1.88.69,2.43,2.43,0,0,0-.71,1.82v4.88A2.41,2.41,0,0,0,279,101a2.58,2.58,0,0,0,1.88.69,2.55,2.55,0,0,0,1.86-.68,2.41,2.41,0,0,0,.7-1.81c0-.14.08-.21.23-.21l1.76.07a.25.25,0,0,1,.17.06.2.2,0,0,1,.06.14,4.28,4.28,0,0,1-.59,2.28,4,4,0,0,1-1.68,1.53,5.75,5.75,0,0,1-2.51.53A5.51,5.51,0,0,1,278.32,103.06Z"/><path class="cls-1" d="M291,103.08a4.09,4.09,0,0,1-1.71-1.66,5,5,0,0,1-.6-2.47V94.59a4.75,4.75,0,0,1,.61-2.44A4.24,4.24,0,0,1,291,90.5a5.81,5.81,0,0,1,5.1,0,4.24,4.24,0,0,1,1.71,1.65,4.75,4.75,0,0,1,.61,2.44V99a4.87,4.87,0,0,1-.61,2.47,4.2,4.2,0,0,1-1.71,1.66,5.92,5.92,0,0,1-5.11,0Zm4.49-2.08a2.73,2.73,0,0,0,.72-2V94.57a2.73,2.73,0,0,0-.72-2,2.58,2.58,0,0,0-1.94-.75,2.53,2.53,0,0,0-1.91.75,2.7,2.7,0,0,0-.73,2V99a2.7,2.7,0,0,0,.73,2,2.53,2.53,0,0,0,1.91.75A2.58,2.58,0,0,0,295.44,101Z"/><path class="cls-1" d="M309.67,90.13a.23.23,0,0,1,.16-.06h1.76a.21.21,0,0,1,.23.23v12.94a.23.23,0,0,1-.06.16.22.22,0,0,1-.17.07h-1.7a.27.27,0,0,1-.27-.15l-5.51-9s-.05,0-.08,0,0,0,0,.09l0,8.92a.24.24,0,0,1-.23.23H302a.24.24,0,0,1-.23-.23V90.3a.22.22,0,0,1,.07-.17.23.23,0,0,1,.16-.06h1.7a.27.27,0,0,1,.27.15l5.5,9s.05,0,.07,0,0,0,0-.08l0-8.92A.22.22,0,0,1,309.67,90.13Z"/><path class="cls-1" d="M323.26,90.13a.23.23,0,0,1,.16-.06h1.76a.21.21,0,0,1,.23.23v12.94a.23.23,0,0,1-.06.16.22.22,0,0,1-.17.07h-1.7a.27.27,0,0,1-.27-.15l-5.51-9s-.05,0-.08,0a.1.1,0,0,0,0,.09l0,8.92a.2.2,0,0,1-.07.16.19.19,0,0,1-.16.07h-1.76a.24.24,0,0,1-.23-.23V90.3a.22.22,0,0,1,.07-.17.23.23,0,0,1,.16-.06h1.7a.27.27,0,0,1,.27.15l5.5,9s0,0,.07,0,0,0,0-.08l0-8.92A.22.22,0,0,1,323.26,90.13Z"/><path class="cls-1" d="M338,91.92a.23.23,0,0,1-.16.06h-6.53a.09.09,0,0,0-.1.1v3.58c0,.06,0,.09.1.09h4.38a.26.26,0,0,1,.17.07.25.25,0,0,1,.06.16v1.46a.23.23,0,0,1-.06.16.22.22,0,0,1-.17.07h-4.38c-.06,0-.1,0-.1.09v3.7c0,.06,0,.09.1.09h6.53a.24.24,0,0,1,.16.07.26.26,0,0,1,.07.16v1.46a.24.24,0,0,1-.07.16.2.2,0,0,1-.16.07h-8.62a.2.2,0,0,1-.16-.07.24.24,0,0,1-.07-.16V90.3a.26.26,0,0,1,.07-.17.23.23,0,0,1,.16-.06h8.62a.23.23,0,0,1,.16.06.26.26,0,0,1,.07.17v1.45A.26.26,0,0,1,338,91.92Z"/><path class="cls-1" d="M343.24,103.06a4.16,4.16,0,0,1-1.69-1.58,4.64,4.64,0,0,1-.59-2.36V94.39a4.63,4.63,0,0,1,.59-2.35,4,4,0,0,1,1.69-1.57,5.47,5.47,0,0,1,2.52-.56,5.58,5.58,0,0,1,2.51.54A4,4,0,0,1,350,92a4.33,4.33,0,0,1,.59,2.26.19.19,0,0,1-.07.16.2.2,0,0,1-.16.07l-1.76.1c-.15,0-.23-.07-.23-.21a2.42,2.42,0,0,0-.7-1.82,2.88,2.88,0,0,0-3.74,0,2.43,2.43,0,0,0-.71,1.82v4.88a2.41,2.41,0,0,0,.71,1.8,2.9,2.9,0,0,0,3.74,0,2.41,2.41,0,0,0,.7-1.81c0-.14.08-.21.23-.21l1.76.07a.23.23,0,0,1,.16.06.17.17,0,0,1,.07.14,4.37,4.37,0,0,1-.59,2.28,4,4,0,0,1-1.69,1.53,5.72,5.72,0,0,1-2.51.53A5.47,5.47,0,0,1,343.24,103.06Z"/><path class="cls-1" d="M362.7,90.13a.25.25,0,0,1,.06.17v1.47a.21.21,0,0,1-.06.16.22.22,0,0,1-.17.07H359c-.06,0-.09,0-.09.1v11.14a.24.24,0,0,1-.07.16.21.21,0,0,1-.16.07h-1.76a.22.22,0,0,1-.17-.07.23.23,0,0,1-.06-.16V92.1a.09.09,0,0,0-.1-.1h-3.39a.2.2,0,0,1-.16-.07.19.19,0,0,1-.07-.16V90.3a.22.22,0,0,1,.07-.17.23.23,0,0,1,.16-.06h9.32A.25.25,0,0,1,362.7,90.13Z"/><path class="cls-1" d="M365.84,103.4a.2.2,0,0,1-.07-.16V90.3a.22.22,0,0,1,.07-.17.21.21,0,0,1,.16-.06h1.76a.23.23,0,0,1,.16.06.22.22,0,0,1,.07.17v12.94a.24.24,0,0,1-.23.23H366A.19.19,0,0,1,365.84,103.4Z"/><path class="cls-1" d="M379.6,90.13a.25.25,0,0,1,.16-.06h1.77a.25.25,0,0,1,.16.06.25.25,0,0,1,.06.17v12.94a.23.23,0,0,1-.06.16.21.21,0,0,1-.16.07h-1.71a.27.27,0,0,1-.27-.15l-5.51-9s-.05,0-.08,0a.1.1,0,0,0,0,.09l0,8.92a.23.23,0,0,1-.06.16.22.22,0,0,1-.17.07H372a.24.24,0,0,1-.23-.23V90.3a.22.22,0,0,1,.07-.17.23.23,0,0,1,.16-.06h1.71a.27.27,0,0,1,.26.15l5.5,9s.05,0,.07,0,0,0,0-.08l0-8.92A.26.26,0,0,1,379.6,90.13Z"/><path class="cls-1" d="M387.46,103.06a4.08,4.08,0,0,1-1.69-1.6,4.75,4.75,0,0,1-.59-2.38V94.45a4.72,4.72,0,0,1,.59-2.38,4.12,4.12,0,0,1,1.69-1.59,5.86,5.86,0,0,1,5,0A4.11,4.11,0,0,1,394.16,92a4,4,0,0,1,.59,2.17v.15a.23.23,0,0,1-.06.16.22.22,0,0,1-.17.07h-1.74a.24.24,0,0,1-.23-.23v-.1a2.24,2.24,0,0,0-.7-1.7,2.9,2.9,0,0,0-3.74,0,2.48,2.48,0,0,0-.71,1.85v4.78a2.41,2.41,0,0,0,.75,1.85,2.74,2.74,0,0,0,1.93.7,2.54,2.54,0,0,0,1.81-.61,2.12,2.12,0,0,0,.66-1.65V98.26a.08.08,0,0,0-.09-.09H390.1a.24.24,0,0,1-.16-.07.21.21,0,0,1-.07-.16V96.52a.24.24,0,0,1,.23-.23h4.42a.22.22,0,0,1,.17.07.23.23,0,0,1,.06.16V99a4.51,4.51,0,0,1-1.29,3.43,4.86,4.86,0,0,1-3.47,1.22A5.51,5.51,0,0,1,387.46,103.06Z"/><path class="cls-1" d="M410.24,103.3l-2.53-5.52a.11.11,0,0,0-.11-.07h-2.3a.08.08,0,0,0-.09.09v5.44a.24.24,0,0,1-.07.16.21.21,0,0,1-.16.07h-1.77a.21.21,0,0,1-.16-.07.24.24,0,0,1-.07-.16V90.3a.26.26,0,0,1,.07-.17.25.25,0,0,1,.16-.06h5.27a4.22,4.22,0,0,1,2.07.49,3.4,3.4,0,0,1,1.39,1.37,4.06,4.06,0,0,1,.5,2,3.66,3.66,0,0,1-.68,2.25,3.48,3.48,0,0,1-1.88,1.29.07.07,0,0,0-.06,0,.11.11,0,0,0,0,.08l2.7,5.57a.41.41,0,0,1,0,.12q0,.15-.21.15h-1.84A.28.28,0,0,1,410.24,103.3Zm-5-11.22v3.81a.08.08,0,0,0,.09.09h2.87a2.08,2.08,0,0,0,1.49-.54,2.16,2.16,0,0,0,0-2.9,2.05,2.05,0,0,0-1.49-.56H405.3C405.24,92,405.21,92,405.21,92.08Z"/><path class="cls-1" d="M424.68,91.92a.23.23,0,0,1-.16.06H418c-.06,0-.09,0-.09.1v3.58a.08.08,0,0,0,.09.09h4.39a.24.24,0,0,1,.16.07.26.26,0,0,1,.07.16v1.46a.24.24,0,0,1-.07.16.2.2,0,0,1-.16.07H418a.08.08,0,0,0-.09.09v3.7a.08.08,0,0,0,.09.09h6.53a.24.24,0,0,1,.16.07.21.21,0,0,1,.07.16v1.46a.24.24,0,0,1-.23.23h-8.61a.22.22,0,0,1-.17-.07.23.23,0,0,1-.06-.16V90.3a.21.21,0,0,1,.23-.23h8.61a.23.23,0,0,1,.16.06.22.22,0,0,1,.07.17v1.45A.22.22,0,0,1,424.68,91.92Z"/><path class="cls-1" d="M429.69,103.14A3.87,3.87,0,0,1,428,101.8a3.39,3.39,0,0,1-.61-2V99.3a.26.26,0,0,1,.07-.17.25.25,0,0,1,.16-.06h1.71a.23.23,0,0,1,.16.06.22.22,0,0,1,.07.17v.36a1.75,1.75,0,0,0,.78,1.46,3.54,3.54,0,0,0,2.15.59,2.71,2.71,0,0,0,1.76-.5,1.61,1.61,0,0,0,.59-1.28,1.37,1.37,0,0,0-.32-.91,3,3,0,0,0-.93-.68,19.51,19.51,0,0,0-1.81-.77,17.19,17.19,0,0,1-2.2-.94,4.06,4.06,0,0,1-1.41-1.19,3.05,3.05,0,0,1-.57-1.89,3.22,3.22,0,0,1,1.23-2.66,5.12,5.12,0,0,1,3.27-1,6.12,6.12,0,0,1,2.54.5,4,4,0,0,1,1.71,1.39,3.53,3.53,0,0,1,.62,2.06v.32a.26.26,0,0,1-.07.17.25.25,0,0,1-.16.06H435a.25.25,0,0,1-.16-.06.26.26,0,0,1-.07-.17V94a1.92,1.92,0,0,0-.73-1.52,3.11,3.11,0,0,0-2-.62,2.71,2.71,0,0,0-1.64.44,1.46,1.46,0,0,0-.58,1.24,1.41,1.41,0,0,0,.3.94,2.87,2.87,0,0,0,.92.66c.41.2,1,.45,1.9.76a20.92,20.92,0,0,1,2.17.94,4.24,4.24,0,0,1,1.4,1.17,3,3,0,0,1,.58,1.89,3.32,3.32,0,0,1-1.27,2.74,5.48,5.48,0,0,1-3.48,1A6.52,6.52,0,0,1,429.69,103.14Z"/><path class="cls-1" d="M449.25,91.92a.25.25,0,0,1-.17.06h-6.52c-.07,0-.1,0-.1.1v3.58c0,.06,0,.09.1.09h4.38a.24.24,0,0,1,.16.07.21.21,0,0,1,.07.16v1.46a.24.24,0,0,1-.23.23h-4.38c-.07,0-.1,0-.1.09v3.7c0,.06,0,.09.1.09h6.52a.26.26,0,0,1,.17.07.25.25,0,0,1,.06.16v1.46a.23.23,0,0,1-.06.16.22.22,0,0,1-.17.07h-8.61a.19.19,0,0,1-.16-.07.2.2,0,0,1-.07-.16V90.3a.22.22,0,0,1,.07-.17.21.21,0,0,1,.16-.06h8.61a.21.21,0,0,1,.23.23v1.45A.25.25,0,0,1,449.25,91.92Z"/><path class="cls-1" d="M460.59,103.28l-.63-2s-.06-.08-.1-.08h-5.05s-.07,0-.1.08l-.63,2a.25.25,0,0,1-.25.19h-1.91a.21.21,0,0,1-.18-.07.25.25,0,0,1,0-.2l4.16-12.94a.24.24,0,0,1,.25-.19h2.39a.24.24,0,0,1,.25.19l4.17,12.94a.16.16,0,0,1,0,.1c0,.11-.07.17-.21.17h-1.91A.25.25,0,0,1,460.59,103.28Zm-5.21-3.87h3.89c.07,0,.1,0,.07-.11l-2-6.42s0-.07-.06-.07,0,0-.05.07l-2,6.42C455.29,99.37,455.32,99.41,455.38,99.41Z"/><path class="cls-1" d="M473.15,103.3l-2.53-5.52a.12.12,0,0,0-.12-.07h-2.29c-.07,0-.1,0-.1.09v5.44a.2.2,0,0,1-.07.16.19.19,0,0,1-.16.07h-1.76a.24.24,0,0,1-.23-.23V90.3a.22.22,0,0,1,.07-.17.23.23,0,0,1,.16-.06h5.27a4.21,4.21,0,0,1,2.06.49,3.42,3.42,0,0,1,1.4,1.37,4.16,4.16,0,0,1,.5,2,3.73,3.73,0,0,1-.68,2.25,3.47,3.47,0,0,1-1.89,1.29.07.07,0,0,0,0,0,.06.06,0,0,0,0,.08l2.7,5.57a.35.35,0,0,1,0,.12q0,.15-.21.15h-1.84A.27.27,0,0,1,473.15,103.3Zm-5-11.22v3.81c0,.06,0,.09.1.09h2.87a2,2,0,0,0,1.48-.54,2.13,2.13,0,0,0,0-2.9,2,2,0,0,0-1.48-.56h-2.87C468.14,92,468.11,92,468.11,92.08Z"/><path class="cls-1" d="M480.54,103.06a4.16,4.16,0,0,1-1.69-1.58,4.64,4.64,0,0,1-.59-2.36V94.39a4.63,4.63,0,0,1,.59-2.35,4,4,0,0,1,1.69-1.57,5.47,5.47,0,0,1,2.52-.56,5.58,5.58,0,0,1,2.51.54A4,4,0,0,1,487.26,92a4.33,4.33,0,0,1,.59,2.26.19.19,0,0,1-.07.16.2.2,0,0,1-.16.07l-1.76.1c-.15,0-.23-.07-.23-.21a2.42,2.42,0,0,0-.7-1.82,2.88,2.88,0,0,0-3.74,0,2.43,2.43,0,0,0-.71,1.82v4.88a2.41,2.41,0,0,0,.71,1.8,2.55,2.55,0,0,0,1.87.69,2.59,2.59,0,0,0,1.87-.68,2.41,2.41,0,0,0,.7-1.81c0-.14.08-.21.23-.21l1.76.07a.23.23,0,0,1,.16.06.17.17,0,0,1,.07.14,4.37,4.37,0,0,1-.59,2.28,4,4,0,0,1-1.69,1.53,5.72,5.72,0,0,1-2.51.53A5.47,5.47,0,0,1,480.54,103.06Z"/><path class="cls-1" d="M498.54,90.13a.25.25,0,0,1,.16-.06h1.77a.25.25,0,0,1,.16.06.26.26,0,0,1,.07.17v12.94a.24.24,0,0,1-.07.16.21.21,0,0,1-.16.07H498.7a.21.21,0,0,1-.16-.07.24.24,0,0,1-.07-.16V97.76a.08.08,0,0,0-.09-.09H493.5c-.07,0-.1,0-.1.09v5.48a.2.2,0,0,1-.07.16.19.19,0,0,1-.16.07h-1.76a.24.24,0,0,1-.23-.23V90.3a.22.22,0,0,1,.07-.17.23.23,0,0,1,.16-.06h1.76a.21.21,0,0,1,.16.06.22.22,0,0,1,.07.17v5.36c0,.06,0,.09.1.09h4.88a.08.08,0,0,0,.09-.09V90.3A.26.26,0,0,1,498.54,90.13Z"/><path class="cls-1" d="M503.89,105l.71-4.29c0-.14.1-.21.25-.21h1.53c.17,0,.23.09.19.25L505.44,105a.25.25,0,0,1-.27.19H504.1C504,105.21,503.88,105.13,503.89,105Z"/><path class="cls-1" d="M276.11,124.74a.2.2,0,0,1-.07-.16V111.64a.22.22,0,0,1,.07-.17.23.23,0,0,1,.16-.06H278a.21.21,0,0,1,.16.06.22.22,0,0,1,.07.17v12.94a.2.2,0,0,1-.07.16.19.19,0,0,1-.16.07h-1.76A.2.2,0,0,1,276.11,124.74Z"/><path class="cls-1" d="M282.08,124.74a.24.24,0,0,1-.07-.16V111.64a.26.26,0,0,1,.07-.17.25.25,0,0,1,.16-.06h4.68a5.63,5.63,0,0,1,2.39.48,3.65,3.65,0,0,1,1.6,1.37,3.82,3.82,0,0,1,.56,2.07v5.55a3.83,3.83,0,0,1-.56,2.08,3.71,3.71,0,0,1-1.6,1.37,5.63,5.63,0,0,1-2.39.48h-4.68A.21.21,0,0,1,282.08,124.74Zm2.25-1.85H287a2.1,2.1,0,0,0,1.62-.64,2.45,2.45,0,0,0,.62-1.71V115.7a2.41,2.41,0,0,0-.61-1.74,2.21,2.21,0,0,0-1.65-.64h-2.66c-.06,0-.09,0-.09.1v9.38A.08.08,0,0,0,284.33,122.89Z"/><path class="cls-1" d="M303.81,113.26a.23.23,0,0,1-.16.06h-6.53a.09.09,0,0,0-.1.1V117c0,.06,0,.09.1.09h4.38a.26.26,0,0,1,.17.07.25.25,0,0,1,.06.16v1.46a.23.23,0,0,1-.06.16.22.22,0,0,1-.17.07h-4.38c-.06,0-.1,0-.1.09v3.7c0,.06,0,.09.1.09h6.53a.24.24,0,0,1,.16.07.26.26,0,0,1,.07.16v1.46a.24.24,0,0,1-.07.16.2.2,0,0,1-.16.07H295a.2.2,0,0,1-.16-.07.24.24,0,0,1-.07-.16V111.64a.26.26,0,0,1,.07-.17.23.23,0,0,1,.16-.06h8.62a.23.23,0,0,1,.16.06.26.26,0,0,1,.07.17v1.45A.26.26,0,0,1,303.81,113.26Z"/><path class="cls-1" d="M315,111.47a.25.25,0,0,1,.16-.06h1.77a.25.25,0,0,1,.16.06.25.25,0,0,1,.06.17v12.94a.23.23,0,0,1-.06.16.21.21,0,0,1-.16.07h-1.71a.27.27,0,0,1-.27-.15l-5.51-9s-.05-.05-.08-.05,0,0,0,.09l0,8.92a.23.23,0,0,1-.06.16.22.22,0,0,1-.17.07h-1.76a.24.24,0,0,1-.23-.23V111.64a.22.22,0,0,1,.07-.17.23.23,0,0,1,.16-.06H309a.27.27,0,0,1,.26.15l5.5,9s0,.05.07,0,0,0,0-.08l0-8.92A.26.26,0,0,1,315,111.47Z"/><path class="cls-1" d="M329.83,111.47a.25.25,0,0,1,.06.17v1.47a.21.21,0,0,1-.06.16.22.22,0,0,1-.17.07h-3.52c-.06,0-.09,0-.09.1v11.14a.24.24,0,0,1-.07.16.22.22,0,0,1-.17.07h-1.76a.21.21,0,0,1-.16-.07.24.24,0,0,1-.07-.16V113.44c0-.07,0-.1-.09-.1h-3.39a.2.2,0,0,1-.16-.07.19.19,0,0,1-.07-.16v-1.47a.22.22,0,0,1,.07-.17.23.23,0,0,1,.16-.06h9.32A.25.25,0,0,1,329.83,111.47Z"/><path class="cls-1" d="M333,124.74a.2.2,0,0,1-.07-.16V111.64a.22.22,0,0,1,.07-.17.21.21,0,0,1,.16-.06h1.76a.23.23,0,0,1,.16.06.22.22,0,0,1,.07.17v12.94a.24.24,0,0,1-.23.23h-1.76A.19.19,0,0,1,333,124.74Z"/><path class="cls-1" d="M347.86,113.26a.23.23,0,0,1-.16.06h-6.51c-.07,0-.1,0-.1.1V117c0,.06,0,.09.1.09h4.38a.26.26,0,0,1,.17.07.25.25,0,0,1,.06.16v1.46a.23.23,0,0,1-.06.16.22.22,0,0,1-.17.07h-4.38c-.07,0-.1,0-.1.09v5.48a.23.23,0,0,1-.06.16.22.22,0,0,1-.17.07H339.1a.24.24,0,0,1-.23-.23V111.64a.22.22,0,0,1,.07-.17.23.23,0,0,1,.16-.06h8.6a.23.23,0,0,1,.16.06.26.26,0,0,1,.07.17v1.45A.26.26,0,0,1,347.86,113.26Z"/><path class="cls-1" d="M353.89,124.72a.2.2,0,0,1-.07-.16v-5.13a.22.22,0,0,0,0-.12l-3.94-7.63a.27.27,0,0,1,0-.12q0-.15.21-.15h1.9a.29.29,0,0,1,.27.17l2.67,5.34s.08,0,.12,0l2.7-5.34a.29.29,0,0,1,.27-.17h1.91c.09,0,.15,0,.18.07a.18.18,0,0,1,0,.2l-4,7.63a.54.54,0,0,0,0,.12v5.13a.23.23,0,0,1-.06.16.22.22,0,0,1-.17.07h-1.76A.2.2,0,0,1,353.89,124.72Z"/><path class="cls-1" d="M363.1,124.74a.2.2,0,0,1-.07-.16V111.64a.22.22,0,0,1,.07-.17.23.23,0,0,1,.16-.06H365a.21.21,0,0,1,.16.06.22.22,0,0,1,.07.17v12.94a.2.2,0,0,1-.07.16.19.19,0,0,1-.16.07h-1.76A.2.2,0,0,1,363.1,124.74Z"/><path class="cls-1" d="M376.86,111.47a.25.25,0,0,1,.16-.06h1.77a.25.25,0,0,1,.16.06.26.26,0,0,1,.07.17v12.94a.24.24,0,0,1-.07.16.21.21,0,0,1-.16.07h-1.71a.28.28,0,0,1-.27-.15l-5.51-9s-.05-.05-.08-.05,0,0,0,.09l0,8.92a.23.23,0,0,1-.06.16.22.22,0,0,1-.17.07h-1.76a.2.2,0,0,1-.16-.07.24.24,0,0,1-.07-.16V111.64a.26.26,0,0,1,.07-.17.23.23,0,0,1,.16-.06h1.71a.29.29,0,0,1,.27.15l5.49,9a.06.06,0,0,0,.08,0s0,0,0-.08v-8.92A.25.25,0,0,1,376.86,111.47Z"/><path class="cls-1" d="M384.72,124.4a4,4,0,0,1-1.68-1.6,4.65,4.65,0,0,1-.6-2.38v-4.63a4.62,4.62,0,0,1,.6-2.38,4,4,0,0,1,1.68-1.59,5.88,5.88,0,0,1,5,0,4.09,4.09,0,0,1,1.67,1.51,4,4,0,0,1,.59,2.17v.15a.23.23,0,0,1-.06.16.22.22,0,0,1-.17.07H390a.24.24,0,0,1-.23-.23v-.1a2.24,2.24,0,0,0-.7-1.7,2.9,2.9,0,0,0-3.74,0,2.48,2.48,0,0,0-.71,1.85v4.78a2.41,2.41,0,0,0,.75,1.85,2.74,2.74,0,0,0,1.93.7,2.54,2.54,0,0,0,1.81-.61,2.12,2.12,0,0,0,.66-1.65V119.6a.08.08,0,0,0-.09-.09h-2.36a.24.24,0,0,1-.16-.07.21.21,0,0,1-.07-.16v-1.42a.24.24,0,0,1,.23-.23h4.42a.22.22,0,0,1,.17.07.23.23,0,0,1,.06.16v2.45a4.51,4.51,0,0,1-1.29,3.43,4.86,4.86,0,0,1-3.47,1.22A5.51,5.51,0,0,1,384.72,124.4Z"/><path class="cls-1" d="M400.31,124.74a.23.23,0,0,1-.06-.16V111.64a.21.21,0,0,1,.23-.23h1.76a.25.25,0,0,1,.16.06.26.26,0,0,1,.07.17v5.72s0,.07,0,.08a.08.08,0,0,0,.08,0l5-5.88a.36.36,0,0,1,.29-.13h2c.12,0,.19,0,.19.13a.29.29,0,0,1-.06.15l-4.38,5.38c0,.06,0,.1,0,.14l4.71,7.33c0,.08,0,.12,0,.13s-.07.14-.2.14h-2a.29.29,0,0,1-.26-.15l-3.79-5.9c-.06-.08-.1-.08-.14,0l-1.42,1.65a.35.35,0,0,0,0,.13v4.06a.24.24,0,0,1-.07.16.21.21,0,0,1-.16.07h-1.76A.22.22,0,0,1,400.31,124.74Z"/><path class="cls-1" d="M420.93,111.47a.25.25,0,0,1,.16-.06h1.76a.21.21,0,0,1,.23.23v12.94a.23.23,0,0,1-.06.16.22.22,0,0,1-.17.07h-1.7a.27.27,0,0,1-.27-.15l-5.51-9s-.05-.05-.08-.05a.1.1,0,0,0,0,.09l0,8.92a.23.23,0,0,1-.06.16.22.22,0,0,1-.17.07H413.3a.24.24,0,0,1-.23-.23V111.64a.22.22,0,0,1,.07-.17.23.23,0,0,1,.16-.06H415a.27.27,0,0,1,.26.15l5.5,9s.05.05.07,0,0,0,0-.08l0-8.92A.26.26,0,0,1,420.93,111.47Z"/><path class="cls-1" d="M428.83,124.42a4.17,4.17,0,0,1-1.72-1.66,5,5,0,0,1-.6-2.47v-4.36a4.82,4.82,0,0,1,.61-2.45,4.25,4.25,0,0,1,1.72-1.64,5.31,5.31,0,0,1,2.53-.59,5.4,5.4,0,0,1,2.56.59,4.29,4.29,0,0,1,1.71,1.64,4.82,4.82,0,0,1,.62,2.45v4.36a4.87,4.87,0,0,1-.62,2.47,4.2,4.2,0,0,1-1.71,1.66,5.9,5.9,0,0,1-5.1,0Zm4.48-2.08a2.73,2.73,0,0,0,.72-2v-4.46a2.73,2.73,0,0,0-.72-2,2.58,2.58,0,0,0-1.94-.75,2.53,2.53,0,0,0-1.91.75,2.7,2.7,0,0,0-.73,2v4.46a2.7,2.7,0,0,0,.73,2,2.53,2.53,0,0,0,1.91.75A2.58,2.58,0,0,0,433.31,122.34Z"/><path class="cls-1" d="M442,124.62l-3.49-13,0-.08c0-.11.07-.17.21-.17h1.88a.25.25,0,0,1,.27.19l2.18,8.73s0,.06.06.06,0,0,.05-.06l2.09-8.73a.24.24,0,0,1,.25-.19h1.84a.25.25,0,0,1,.27.19l2.22,8.75s0,.06,0,.06.05,0,.06-.06l2.15-8.75a.24.24,0,0,1,.26-.19h1.78c.18,0,.25.08.21.25l-3.31,13a.26.26,0,0,1-.27.19H449a.24.24,0,0,1-.26-.19l-2.24-9.13s0-.07-.06-.07-.05,0-.06.07l-2.14,9.13a.25.25,0,0,1-.25.19H442.3A.24.24,0,0,1,442,124.62Z"/><path class="cls-1" d="M457.28,124.74a.23.23,0,0,1-.06-.16V111.64a.21.21,0,0,1,.23-.23h1.76a.23.23,0,0,1,.16.06.26.26,0,0,1,.07.17V122.8a.08.08,0,0,0,.09.09H466a.24.24,0,0,1,.23.23v1.46a.24.24,0,0,1-.07.16.21.21,0,0,1-.16.07h-8.5A.22.22,0,0,1,457.28,124.74Z"/><path class="cls-1" d="M478.11,113.26a.23.23,0,0,1-.16.06h-6.53c-.06,0-.09,0-.09.1V117a.08.08,0,0,0,.09.09h4.39a.24.24,0,0,1,.23.23v1.46a.24.24,0,0,1-.07.16.21.21,0,0,1-.16.07h-4.39a.08.08,0,0,0-.09.09v3.7a.08.08,0,0,0,.09.09H478a.24.24,0,0,1,.16.07.21.21,0,0,1,.07.16v1.46a.24.24,0,0,1-.23.23h-8.61a.22.22,0,0,1-.17-.07.23.23,0,0,1-.06-.16V111.64a.21.21,0,0,1,.23-.23H478a.23.23,0,0,1,.16.06.22.22,0,0,1,.07.17v1.45A.22.22,0,0,1,478.11,113.26Z"/><path class="cls-1" d="M481.46,124.74a.23.23,0,0,1-.06-.16V111.64a.21.21,0,0,1,.23-.23h4.67a5.63,5.63,0,0,1,2.39.48,3.65,3.65,0,0,1,1.6,1.37,3.82,3.82,0,0,1,.56,2.07v5.55a3.83,3.83,0,0,1-.56,2.08,3.71,3.71,0,0,1-1.6,1.37,5.63,5.63,0,0,1-2.39.48h-4.67A.22.22,0,0,1,481.46,124.74Zm2.25-1.85h2.68a2.1,2.1,0,0,0,1.62-.64,2.45,2.45,0,0,0,.62-1.71V115.7A2.41,2.41,0,0,0,488,114a2.21,2.21,0,0,0-1.65-.64h-2.66c-.06,0-.09,0-.09.1v9.38A.08.08,0,0,0,483.71,122.89Z"/><path class="cls-1" d="M496.12,124.4a4.08,4.08,0,0,1-1.69-1.6,4.75,4.75,0,0,1-.59-2.38v-4.63a4.72,4.72,0,0,1,.59-2.38,4.12,4.12,0,0,1,1.69-1.59,5.86,5.86,0,0,1,5,0,4.18,4.18,0,0,1,1.68,1.51,4.08,4.08,0,0,1,.59,2.17v.15a.24.24,0,0,1-.23.23h-1.74a.19.19,0,0,1-.16-.07.2.2,0,0,1-.07-.16v-.1a2.24,2.24,0,0,0-.7-1.7,2.58,2.58,0,0,0-1.87-.67,2.53,2.53,0,0,0-1.87.7,2.48,2.48,0,0,0-.71,1.85v4.78a2.41,2.41,0,0,0,.75,1.85,2.72,2.72,0,0,0,1.93.7,2.54,2.54,0,0,0,1.81-.61,2.12,2.12,0,0,0,.66-1.65V119.6c0-.06,0-.09-.1-.09h-2.35a.24.24,0,0,1-.16-.07.21.21,0,0,1-.07-.16v-1.42a.24.24,0,0,1,.23-.23h4.42a.24.24,0,0,1,.23.23v2.45a4.51,4.51,0,0,1-1.29,3.43,4.87,4.87,0,0,1-3.48,1.22A5.47,5.47,0,0,1,496.12,124.4Z"/><path class="cls-1" d="M515.86,113.26a.21.21,0,0,1-.16.06h-6.53c-.06,0-.09,0-.09.1V117a.08.08,0,0,0,.09.09h4.39a.24.24,0,0,1,.16.07.21.21,0,0,1,.07.16v1.46a.24.24,0,0,1-.23.23h-4.39a.08.08,0,0,0-.09.09v3.7a.08.08,0,0,0,.09.09h6.53a.22.22,0,0,1,.16.07.21.21,0,0,1,.07.16v1.46a.2.2,0,0,1-.07.16.19.19,0,0,1-.16.07h-8.61a.22.22,0,0,1-.17-.07.23.23,0,0,1-.06-.16V111.64a.21.21,0,0,1,.23-.23h8.61a.21.21,0,0,1,.16.06.22.22,0,0,1,.07.17v1.45A.22.22,0,0,1,515.86,113.26Z"/></svg>
