<?xml version="1.0" standalone="no"?>
<!DOCTYPE svg PUBLIC "-//W3C//DTD SVG 20010904//EN"
 "http://www.w3.org/TR/2001/REC-SVG-20010904/DTD/svg10.dtd">
<svg version="1.0" xmlns="http://www.w3.org/2000/svg"
 width="144.000000pt" height="144.000000pt" viewBox="0 0 144.000000 144.000000"
 preserveAspectRatio="xMidYMid meet">
<metadata>
Created by potrace 1.11, written by Peter Selinger 2001-2013
</metadata>
<g transform="translate(0.000000,144.000000) scale(0.100000,-0.100000)"
fill="#000000" stroke="none">
<path d="M625 1407 c-27 -16 -53 -34 -57 -40 -4 -6 -10 -8 -14 -4 -4 3 -20 -1
-35 -10 -39 -23 -41 -75 -4 -99 14 -9 32 -13 41 -10 9 4 38 -6 68 -23 l52 -30
52 30 53 30 -3 65 -3 65 -50 28 -50 28 -50 -30z"/>
<path d="M920 1211 c-39 -23 -45 -32 -48 -65 l-3 -37 -55 31 -55 31 -64 -37
-65 -36 0 -79 0 -79 41 -25 c74 -47 87 -51 119 -32 23 14 33 15 54 6 26 -12
26 -14 26 -120 l0 -108 45 -27 c45 -26 45 -26 45 -80 0 -54 -1 -55 -45 -82
-43 -26 -45 -29 -45 -74 0 -27 -3 -48 -6 -48 -4 0 -37 17 -74 38 l-66 39 -72
-41 -71 -41 -1 -87 c0 -73 3 -89 17 -97 21 -11 21 -10 -35 -43 l-43 -25 85
-46 85 -46 255 152 256 152 0 37 c0 29 6 41 26 54 24 16 25 22 22 85 -3 62 -1
69 20 80 19 11 22 20 22 70 0 49 -3 59 -25 73 -23 15 -25 22 -25 94 l0 77 -92
52 -91 51 -47 -26 -47 -26 -34 20 c-28 16 -35 27 -37 57 -4 43 1 44 47 16 l35
-21 53 28 53 29 0 65 0 65 -50 28 c-28 15 -53 27 -58 26 -4 0 -27 -13 -52 -28z"/>
<path d="M318 1209 c-26 -14 -24 -66 2 -74 11 -3 29 -3 40 0 27 9 27 60 1 75
-23 12 -22 12 -43 -1z"/>
<path d="M1218 1154 c-23 -12 -28 -21 -28 -54 0 -33 5 -41 34 -59 l34 -21 36
21 c31 18 36 26 36 58 0 30 -5 40 -29 54 -35 21 -48 21 -83 1z"/>
<path d="M347 1022 l-48 -26 3 -59 c3 -58 3 -58 48 -83 l46 -25 47 26 47 27 0
57 0 58 -48 26 -47 26 -48 -27z"/>
<path d="M553 844 l-63 -35 0 -69 0 -69 -57 31 -58 31 -73 -43 c-49 -28 -80
-40 -94 -36 -13 3 -35 -3 -55 -15 -29 -18 -33 -26 -33 -63 0 -39 3 -45 35 -62
31 -16 35 -23 35 -59 0 -39 2 -41 74 -82 l74 -42 4 -61 c1 -33 0 -60 -4 -60
-5 0 -8 -20 -8 -44 0 -38 4 -47 31 -64 32 -20 32 -20 65 0 29 17 34 25 34 59
0 30 5 42 25 55 21 14 25 24 25 63 0 37 -4 49 -22 60 -21 13 -21 14 -3 27 10
8 61 37 112 66 l93 51 0 68 c0 66 1 69 30 84 30 15 30 17 30 95 l0 79 -63 36
c-35 19 -66 35 -68 35 -2 0 -32 -16 -66 -36z"/>
<path d="M778 614 c-23 -12 -28 -21 -28 -54 0 -34 4 -42 30 -55 27 -14 33 -14
60 0 25 13 30 21 30 53 0 31 -5 41 -29 55 -34 20 -29 20 -63 1z"/>
</g>
</svg>
